<svg width="52" height="32" viewBox="0 0 52 32" fill="none" xmlns="http://www.w3.org/2000/svg">
<path d="M51.6225 10.7285C49.7189 9.63926 58.5235 14.6766 32.9949 0.0723276C32.8845 0.0164694 32.6024 -0.0139983 32.4895 0.0063137L24.4417 1.45354C23.7003 1.63889 23.1616 2.37012 23.0153 3.05311L22.6664 4.61459L17.1636 5.60226C17.161 5.60226 17.161 5.6048 17.1585 5.6048C17.1533 5.6048 17.1456 5.6048 17.1405 5.6048C16.4222 5.75967 15.8604 6.50868 15.691 7.21198L15.3498 8.77854C15.2421 8.79631 9.45448 9.83984 9.8162 9.77382C9.10814 9.8957 8.52579 10.665 8.38469 11.3658L8.04349 12.9298C6.66329 13.1761 3.90032 13.6686 2.51755 13.9149C1.80949 14.0546 1.22201 14.801 1.05782 15.5221L0.0111259 20.3259C-0.0350522 20.5468 0.0650002 20.7727 0.265103 20.887L18.8645 31.5254C19.0158 31.6092 19.1954 31.6168 19.3468 31.5508C19.357 31.5457 19.3622 31.5381 19.3724 31.533C19.3801 31.5279 19.3904 31.5305 19.3981 31.5254L51.4249 13.3335C51.5557 13.2599 51.6455 13.138 51.6789 12.9933L51.9688 11.6908C52.074 11.2363 51.9021 10.8859 51.6225 10.7285ZM32.4818 1.06761L49.6804 10.9011L43.272 12.0488L26.0785 2.21778L32.4818 1.06761ZM24.0518 3.26892C24.1159 2.96678 24.3263 2.69003 24.5366 2.54531L42.1868 12.6353C41.9174 12.9298 41.7045 13.2979 41.6147 13.689C41.5865 13.8032 41.7096 13.2497 41.3556 14.8899L23.7106 4.80247L24.0518 3.26892ZM23.0179 5.61241L40.2089 15.4409L35.9605 16.2026L18.7696 6.37411L23.0179 5.61241ZM16.7249 7.44303C16.807 7.11042 17.0302 6.82351 17.2149 6.69656L34.8599 16.7814C34.6675 16.9922 34.3879 17.4517 34.2981 17.8504L34.0364 19.0538L16.394 8.96642L16.7249 7.44303ZM15.6936 9.7789L32.8871 19.6048C32.6793 19.6429 28.4284 20.4021 28.6413 20.364L19.9214 15.3825L11.4452 10.5355L15.6936 9.7789ZM8.38469 13.9302C31.0246 26.874 23.7542 22.7151 25.5756 23.7586L21.3247 24.5178L4.14147 14.6893L8.38469 13.9302ZM9.42369 11.579C9.49039 11.2541 9.71358 10.9672 9.88034 10.8529L19.9881 16.6266L27.5408 20.9454C27.3253 21.1815 27.0738 21.6106 26.9892 21.9915C26.8917 22.4206 26.6993 23.3067 26.7224 23.2026C24.9189 22.1717 33.2565 26.9349 9.08762 13.1253L9.42369 11.579ZM2.09426 15.7455C2.16096 15.4586 2.36619 15.1514 2.57912 15.0092L20.2242 25.0967C20.0728 25.2617 19.7572 25.739 19.6675 26.1605C19.6444 26.2646 18.708 30.5326 18.767 30.261L1.12965 20.1735L2.09426 15.7455ZM19.9035 30.0325L20.7065 26.3738C20.7809 26.0335 21.0271 25.7339 21.317 25.5816C21.317 25.5816 21.3222 25.5791 21.3247 25.5791L27.1816 24.533C27.5408 24.467 27.5074 24.2334 27.6075 24.1293L28.0231 22.2225C28.0975 21.8772 28.3463 21.5751 28.6311 21.4278L28.6336 21.4253C32.3509 20.7601 34.511 20.3944 34.6188 20.3462C34.7317 20.298 34.8856 20.1431 34.9241 19.978L35.3371 18.0713C35.4012 17.7869 35.6321 17.439 35.9502 17.2715C42.6486 16.0655 41.7173 16.2305 41.8482 16.1975C42.056 16.1467 42.1996 15.9842 42.2381 15.8141C42.7563 13.5163 42.6383 13.9632 42.6999 13.788C42.7922 13.5265 43.0206 13.1761 43.2771 13.1126L50.8682 11.7492L50.6912 12.5439L19.9035 30.0325Z" fill="#263E86"/>
</svg>
